<svg xmlns="http://www.w3.org/2000/svg" height="800" width="1200" viewBox="-36 -58.5 312 351"><path d="M197.5 234h-155C19 234 0 215 0 191.5v-149C0 19 19 0 42.5 0h155C221 0 240 19 240 42.5v149c0 23.5-19 42.5-42.5 42.5z" fill="#ff26be"/><path d="M193.7 224H46.3c-20 0-36.3-16.3-36.3-36.3V46.3C10 26.3 26.3 10 46.3 10h147.3c20.1 0 36.3 16.3 36.3 36.3v141.3c.1 20.1-16.2 36.4-36.2 36.4z" fill="#2e001f"/><path d="M94.9 109.5l28 53.8c.5.8.2 1.6-.6 1.6h-17.4c-1.1 0-1.6-.3-2.1-1.3-6.4-13.2-12.9-26.4-19.6-40.6H83c-6 13.4-12.6 27.5-19 40.7-.5.8-1 1.1-1.8 1.1H45.7c-1 0-1.1-.8-.6-1.4l27.4-52.2L46 58.4c-.6-.8 0-1.4.6-1.4h17.2c1 0 1.4.2 1.8 1.1 6.3 13.2 12.7 26.8 18.7 40.1h.2c5.8-13.2 12.2-26.9 18.4-40 .5-.8.8-1.3 1.8-1.3h16.1c.8 0 1.1.6.6 1.4zm32.9 16.3c0-23.3 15.5-41.5 40.1-41.5 2.1 0 3.2 0 5.2.2V58c0-.6.5-1 1-1h15.8c.8 0 1 .3 1 .8v91.8c0 2.7 0 6.1.5 9.8 0 .6-.2.8-.8 1.1-8.4 4-17.2 5.8-25.6 5.8-21.7.1-37.2-13.3-37.2-40.5zm45.3-25.6c-1.4-.6-3.4-1-5.8-1-12.6 0-21.4 9.7-21.4 25.8 0 18.4 9 25.8 20.3 25.8 2.4 0 5-.3 6.9-1.1z" fill="#ffd9f2"/></svg>